<?xml version="1.0" encoding="utf-8"?>
<!-- Generator: Adobe Illustrator 16.0.0, SVG Export Plug-In . SVG Version: 6.00 Build 0)  -->
<!DOCTYPE svg PUBLIC "-//W3C//DTD SVG 1.1//EN" "http://www.w3.org/Graphics/SVG/1.1/DTD/svg11.dtd">
<svg version="1.1" id="Capa_1" xmlns="http://www.w3.org/2000/svg" xmlns:xlink="http://www.w3.org/1999/xlink" x="0px" y="0px"
	 width="20px" height="15.75px" viewBox="0 0 20 15.75" enable-background="new 0 0 20 15.75" xml:space="preserve">
<g>
	<g>
		
			<linearGradient id="SVGID_1_" gradientUnits="userSpaceOnUse" x1="315.5596" y1="424.4531" x2="331.3096" y2="424.4531" gradientTransform="matrix(0 -1 -1 0 434.4521 331.3096)">
			<stop  offset="0.3" style="stop-color:#1E1C1D"/>
			<stop  offset="1" style="stop-color:#5A5B5F"/>
		</linearGradient>
		<path fill="url(#SVGID_1_)" d="M7.019,0l-7.02,7.873l7.02,7.877h10.488c1.451,0,2.492-4.861,2.492-7.875
			C19.999,4.859,18.958,0,17.507,0H7.019z"/>
		
			<linearGradient id="SVGID_2_" gradientUnits="userSpaceOnUse" x1="195.3115" y1="15.75" x2="195.3115" y2="0" gradientTransform="matrix(-1 0 0 1 205.3105 0)">
			<stop  offset="0" style="stop-color:#141213"/>
			<stop  offset="0.2245" style="stop-color:#181617"/>
			<stop  offset="0.4572" style="stop-color:#232224"/>
			<stop  offset="0.6935" style="stop-color:#363638"/>
			<stop  offset="0.931" style="stop-color:#515255"/>
			<stop  offset="1" style="stop-color:#5A5B5F"/>
		</linearGradient>
		<path fill="url(#SVGID_2_)" d="M7.706,1.535h9.045c0.604,0,1.713,3.324,1.713,6.34c0,3.014-1.109,6.338-1.713,6.338H7.706
			l-5.65-6.34L7.706,1.535 M7.019,0l-7.02,7.873l7.02,7.877h10.488c1.451,0,2.492-4.861,2.492-7.875C19.999,4.859,18.958,0,17.507,0
			H7.019L7.019,0z"/>
	</g>
	<path fill="#EDECEB" d="M13.089,9.535l2.193-1.66l-2.193-1.662l-2.193-1.66v3.322v3.32L13.089,9.535z M11.597,5.838l1.346,1.018
		l1.346,1.02l-1.346,1.02l-1.346,1.018V7.875V5.838z"/>
</g>
</svg>
