<?xml version="1.0" encoding="utf-8"?>
<!-- Generator: Adobe Illustrator 16.0.0, SVG Export Plug-In . SVG Version: 6.00 Build 0)  -->
<!DOCTYPE svg PUBLIC "-//W3C//DTD SVG 1.1//EN" "http://www.w3.org/Graphics/SVG/1.1/DTD/svg11.dtd">
<svg version="1.1" id="Capa_1" xmlns="http://www.w3.org/2000/svg" xmlns:xlink="http://www.w3.org/1999/xlink" x="0px" y="0px"
	 width="20px" height="15.75px" viewBox="0 0 20 15.75" enable-background="new 0 0 20 15.75" xml:space="preserve">
<g>
	<g>
		
			<linearGradient id="SVGID_1_" gradientUnits="userSpaceOnUse" x1="474.1123" y1="370.3696" x2="489.8623" y2="370.3696" gradientTransform="matrix(0 -1 1 0 -360.3696 489.8628)">
			<stop  offset="0.3" style="stop-color:#1E1C1D"/>
			<stop  offset="1" style="stop-color:#5A5B5F"/>
		</linearGradient>
		<path fill="url(#SVGID_1_)" d="M12.98,0L20,7.873l-7.02,7.877H2.493C1.041,15.75,0,10.889,0,7.875C0,4.859,1.041,0,2.493,0H12.98z
			"/>
		<linearGradient id="SVGID_2_" gradientUnits="userSpaceOnUse" x1="10" y1="15.75" x2="10" y2="0">
			<stop  offset="0" style="stop-color:#141213"/>
			<stop  offset="0.2245" style="stop-color:#181617"/>
			<stop  offset="0.4572" style="stop-color:#232224"/>
			<stop  offset="0.6935" style="stop-color:#363638"/>
			<stop  offset="0.931" style="stop-color:#515255"/>
			<stop  offset="1" style="stop-color:#5A5B5F"/>
		</linearGradient>
		<path fill="url(#SVGID_2_)" d="M12.293,1.535l5.65,6.338l-5.65,6.34H3.248c-0.604,0-1.713-3.324-1.713-6.338
			c0-3.016,1.109-6.34,1.713-6.34H12.293 M12.98,0H2.493C1.041,0,0,4.859,0,7.875c0,3.014,1.041,7.875,2.493,7.875H12.98L20,7.873
			L12.98,0L12.98,0z"/>
	</g>
	<path fill="#EDECEB" d="M6.911,6.215l-2.193,1.66l2.193,1.66l2.192,1.66v-3.32V4.553L6.911,6.215z M8.403,9.912L7.058,8.895
		l-1.346-1.02l1.346-1.02l1.346-1.018v2.037V9.912z"/>
</g>
</svg>
