<?xml version="1.0" encoding="utf-8"?>
<!-- Generator: Adobe Illustrator 16.0.0, SVG Export Plug-In . SVG Version: 6.00 Build 0)  -->
<!DOCTYPE svg PUBLIC "-//W3C//DTD SVG 1.1//EN" "http://www.w3.org/Graphics/SVG/1.1/DTD/svg11.dtd">
<svg version="1.1" id="Capa_1" xmlns="http://www.w3.org/2000/svg" xmlns:xlink="http://www.w3.org/1999/xlink" x="0px" y="0px"
	 width="19.999px" height="25.428px" viewBox="0 0 19.999 25.428" enable-background="new 0 0 19.999 25.428" xml:space="preserve">
<g>
	<g>
		<linearGradient id="SVGID_1_" gradientUnits="userSpaceOnUse" x1="9.9785" y1="5.4507" x2="9.9785" y2="25.4287">
			<stop  offset="0" style="stop-color:#5B5B5F"/>
			<stop  offset="1" style="stop-color:#141414"/>
		</linearGradient>
		<path fill="url(#SVGID_1_)" d="M16.298,19.878c0,3.065-2.829,5.55-6.319,5.55l0,0c-3.49,0-6.319-2.484-6.319-5.55V11
			c0-3.064,2.829-5.549,6.319-5.549l0,0c3.49,0,6.319,2.484,6.319,5.549V19.878z"/>
		<linearGradient id="SVGID_2_" gradientUnits="userSpaceOnUse" x1="9.9785" y1="5.4507" x2="9.9785" y2="25.4287">
			<stop  offset="0" style="stop-color:#5B5B5F"/>
			<stop  offset="0.0231" style="stop-color:#59595D"/>
			<stop  offset="0.4507" style="stop-color:#333335"/>
			<stop  offset="0.7912" style="stop-color:#1C1C1D"/>
			<stop  offset="1" style="stop-color:#141414"/>
		</linearGradient>
		<path fill="url(#SVGID_2_)" d="M9.979,6.888c2.692,0,4.882,1.845,4.882,4.112v8.879c0,2.267-2.189,4.112-4.882,4.112
			c-2.691,0-4.882-1.846-4.882-4.112V11C5.097,8.732,7.287,6.888,9.979,6.888 M9.979,5.451c-3.49,0-6.319,2.484-6.319,5.549v8.879
			c0,3.065,2.829,5.55,6.319,5.55s6.319-2.484,6.319-5.55V11C16.298,7.935,13.469,5.451,9.979,5.451L9.979,5.451z"/>
	</g>
	<g>
		<path d="M2.737,1.518c-0.023-0.236-0.11-0.413-0.258-0.529C2.331,0.873,2.108,0.815,1.811,0.815c-0.548,0-0.821,0.188-0.821,0.563
			c0,0.135,0.057,0.248,0.17,0.337c0.113,0.09,0.296,0.166,0.547,0.227c0.297,0.069,0.555,0.135,0.773,0.195s0.417,0.13,0.599,0.209
			C3.181,2.389,3.276,2.44,3.366,2.504c0.092,0.063,0.168,0.14,0.23,0.233C3.659,2.829,3.71,2.941,3.746,3.071
			c0.038,0.13,0.056,0.288,0.056,0.474c0,0.223-0.046,0.42-0.139,0.592C3.569,4.308,3.444,4.453,3.287,4.572
			C3.129,4.69,2.943,4.781,2.729,4.843C2.517,4.906,2.291,4.937,2.054,4.937c-0.673,0-1.178-0.13-1.518-0.39
			C0.198,4.288,0.019,3.902,0,3.391h0.933c0.006,0.237,0.102,0.424,0.289,0.561C1.41,4.089,1.646,4.157,1.929,4.157
			c0.307,0,0.539-0.055,0.697-0.166c0.157-0.112,0.236-0.263,0.236-0.453c0-0.074-0.01-0.143-0.028-0.206S2.78,3.213,2.727,3.161
			c-0.054-0.05-0.128-0.095-0.22-0.135C2.415,2.986,2.294,2.95,2.145,2.918C1.792,2.844,1.486,2.769,1.229,2.691
			C0.972,2.615,0.759,2.52,0.593,2.406C0.425,2.292,0.302,2.154,0.224,1.991c-0.08-0.162-0.119-0.369-0.119-0.619
			c0-0.19,0.035-0.369,0.104-0.537C0.278,0.668,0.386,0.523,0.528,0.4c0.145-0.123,0.322-0.22,0.533-0.292S1.522,0,1.811,0
			C2.089,0,2.34,0.036,2.563,0.108C2.786,0.18,2.978,0.282,3.138,0.414c0.159,0.133,0.283,0.293,0.372,0.48
			c0.088,0.188,0.137,0.396,0.146,0.624H2.737z"/>
		<path d="M6.776,4.777V2.702H4.972v2.075H4.005V0.153h0.967v1.74h1.805v-1.74h0.975v4.624H6.776z"/>
		<path d="M11.267,4.777l-0.291-0.954H9.269L8.941,4.777H7.918l1.65-4.624h1.121l1.63,4.624H11.267z M10.118,1.191H10.11L9.52,3.029
			h1.177L10.118,1.191z"/>
		<path d="M15.194,4.777V3.586c0-0.222-0.051-0.381-0.152-0.477c-0.103-0.095-0.293-0.143-0.571-0.143h-1.03v1.811h-0.941V0.153
			h2.348c0.213,0,0.406,0.033,0.582,0.101c0.174,0.067,0.323,0.16,0.448,0.279c0.126,0.118,0.222,0.259,0.288,0.425
			c0.068,0.165,0.103,0.342,0.103,0.532c0,0.251-0.06,0.472-0.179,0.665c-0.118,0.192-0.289,0.328-0.512,0.408
			c0.205,0.065,0.35,0.165,0.436,0.299c0.086,0.135,0.129,0.336,0.129,0.606v1.309H15.194z M13.44,0.954v1.232h1.211
			c0.26,0,0.443-0.058,0.551-0.174c0.106-0.116,0.16-0.262,0.16-0.438c0-0.181-0.053-0.33-0.158-0.446
			c-0.104-0.116-0.276-0.174-0.518-0.174H13.44z"/>
		<path d="M16.489,4.777V0.153h3.398v0.808H17.43V1.95h2.265v0.815H17.43v1.19h2.569v0.822H16.489z"/>
	</g>
</g>
</svg>
